<?xml version="1.0" standalone="no"?>
<!DOCTYPE svg PUBLIC "-//W3C//DTD SVG 20010904//EN"
 "http://www.w3.org/TR/2001/REC-SVG-20010904/DTD/svg10.dtd">
<svg version="1.0" xmlns="http://www.w3.org/2000/svg"
 width="144.000000pt" height="144.000000pt" viewBox="0 0 144.000000 144.000000"
 preserveAspectRatio="xMidYMid meet">
<metadata>
Created by potrace 1.11, written by Peter Selinger 2001-2013
</metadata>
<g transform="translate(0.000000,144.000000) scale(0.100000,-0.100000)"
fill="#000000" stroke="none">
<path d="M1155 1430 c-32 -7 -200 -37 -365 -65 -14 -3 -36 -7 -50 -10 -34 -7
-127 -23 -170 -30 -19 -3 -46 -7 -60 -10 -14 -3 -38 -7 -55 -10 -16 -3 -40 -7
-51 -9 -12 -2 -39 -7 -60 -10 -22 -3 -50 -8 -64 -11 -39 -8 -70 -14 -130 -25
-30 -5 -71 -12 -90 -16 -19 -3 -41 -7 -47 -7 -7 0 -13 -1 -13 -2 0 -1 4 -26
10 -56 5 -30 12 -70 15 -89 3 -19 12 -71 20 -115 8 -44 17 -97 21 -119 3 -21
8 -48 10 -60 3 -11 9 -43 14 -71 5 -27 11 -63 14 -80 8 -46 53 -304 81 -465
14 -80 27 -150 30 -157 3 -11 34 -10 90 2 11 2 88 16 170 30 83 14 161 28 175
31 78 14 234 41 285 50 17 3 37 7 45 9 8 2 33 7 55 10 23 3 52 8 65 10 14 3
90 16 170 30 160 28 173 31 167 42 -3 5 -8 31 -12 58 -3 28 -17 108 -30 180
-13 72 -26 144 -29 160 -12 74 -40 230 -51 290 -3 17 -8 46 -11 65 -3 19 -21
123 -41 230 -19 107 -36 202 -37 210 -3 18 -19 21 -71 10z"/>
</g>
</svg>
