<svg xmlns="http://www.w3.org/2000/svg" viewBox="-3115.943 4044.939 184.734 87.699">
  <defs>
    <style>
      .cls-1 {
        fill: #fff;
      }

      .cls-2 {
        fill: #ff6e00;
      }
    </style>
  </defs>
  <g id="group" transform="translate(-3565.509 313.683)">
    <path id="path" class="cls-1" d="M545.1,3771.6a4.382,4.382,0,0,0-3.1-1.1c-1.3,0-2.4.6-2.4,1.5,0,1.2,1.2,1.5,2.9,1.6,2.7.2,5.2,1.3,5.2,4.4,0,3-2.8,4.3-5.7,4.3-2.3,0-4.8-.9-5.9-2.8l1.8-1.9a5.448,5.448,0,0,0,4.1,1.9c1.6,0,2.7-.6,2.7-1.6q0-1.65-2.7-1.8c-2.8-.3-5.4-1-5.4-4.2,0-2.7,2.6-4.1,5.3-4.1a5.941,5.941,0,0,1,5,2.1Z"/>
    <path id="path-2" data-name="path" class="cls-1" d="M556.6,3775.2H560a2,2,0,0,0,2.2-2,1.949,1.949,0,0,0-2.2-2h-3.4Zm0,2.8v3.8h-3v-13.5H560c3.4,0,5.2,2.2,5.2,4.8,0,2.7-1.7,4.8-5.2,4.8h-3.4Z"/>
    <path id="path-3" data-name="path" class="cls-1" d="M577.4,3770.7a4.174,4.174,0,0,0-4.3,4.4,4.231,4.231,0,0,0,4.3,4.4,4.121,4.121,0,0,0,4.3-4.4,4.174,4.174,0,0,0-4.3-4.4m0,11.4c-4.3,0-7.3-2.7-7.3-7.1s3-7.1,7.3-7.1,7.3,2.7,7.3,7.1-3,7.1-7.3,7.1"/>
    <path id="path-4" data-name="path" class="cls-1" d="M593.8,3770.9v3.9h3.4a1.86,1.86,0,0,0,2-1.9,1.935,1.935,0,0,0-2-2Zm8.9,10.9h-3.3l-3.4-4.4h-2.2v4.4h-3v-13.5h6.4c3.3,0,5,2.2,5,4.5,0,1.8-.5,3.3-3.1,4.2l3.7,4.5v.3Z"/>
    <path id="path-5" data-name="path" class="cls-1" d="M611.3,3771h-4.1v-2.7h11.2v2.7h-4.1v10.8h-3Z"/>
    <path id="path-6" data-name="path" class="cls-1" d="M631.7,3771.6a4.382,4.382,0,0,0-3.1-1.1c-1.3,0-2.4.6-2.4,1.5,0,1.2,1.2,1.5,2.9,1.6,2.7.2,5.2,1.3,5.2,4.4,0,3-2.8,4.3-5.7,4.3-2.3,0-4.8-.9-5.9-2.8l1.8-1.9a5.448,5.448,0,0,0,4.1,1.9c1.6,0,2.7-.6,2.7-1.6q0-1.65-2.7-1.8c-2.9-.3-5.4-1-5.4-4.2,0-2.7,2.6-4.1,5.3-4.1a5.941,5.941,0,0,1,5,2.1Z"/>
    <rect id="rectangle" class="cls-1" width="75.7" height="75.7" transform="translate(449.566 3744.405) rotate(-10.003)"/>
    <path id="path-7" data-name="path" class="cls-1" d="M517.7,3753.9h3.8l-1.7,6.1h-2.1Z"/>
    <path id="path-8" data-name="path" class="cls-2" d="M462.8,3761.3h3.7l-1.7,6.2h-2Z"/>
    <path id="path-9" data-name="path" class="cls-2" d="M470.6,3789l-2.3-6.1c-.2-.9-1.3-3.1-1.4-4h0c.1.8.2,3.4.2,4.3v5.7h-4.3v-9.2l6.6-18.2a.31.31,0,0,0,.1-.2h4.4l-4.6,11.8,5.7,15.8h-4.4Z"/>
    <path id="path-10" data-name="path" class="cls-2" d="M488.6,3789H485l-1.2-11.4c-.1-1-.5-3.6-.5-4.5h0c0,.8-.4,3.4-.5,4.5l-1.4,11.4h-3.6l-3.3-27.6h4.1l.7,8.5c.1,1.5.5,5.4.5,6.6h0c0-1.1.4-5.1.6-6.6l1.2-8.5H485l1.2,8.5c.2,1.4.6,5.5.6,6.6h.1c0-1.1.3-5.1.5-6.6l.7-8.5H492Z"/>
    <path id="path-11" data-name="path" class="cls-2" d="M502,3765.3h-4.6v7.6h3.1v3.7h-3.1v8.4H502v4h-9v-27.7h9Z"/>
    <path id="path-12" data-name="path" class="cls-2" d="M508.2,3789.4c-3.3,0-5.3-2.1-5.3-5.8v-2.9h3.7v3.1c0,1.1.5,1.8,1.4,1.8s1.4-.7,1.4-1.8c0-2.5-1.1-4.5-2.9-7.5l-.3-.4c-1.6-2.7-3.3-5.7-3.3-8.9,0-3.4,1.9-6.1,5.5-6.1,2.9,0,4.9,2.1,4.9,5.8v3h-3.7v-3.3c0-1-.5-1.6-1.2-1.6s-1.2.5-1.2,1.7c0,2.8,1,4.3,2.7,7.2l.2.4c1.9,3.1,3.4,6.3,3.4,9.2,0,4.3-2.6,6.1-5.3,6.1"/>
    <path id="path-13" data-name="path" class="cls-2" d="M523.7,3765.3h-4.6v7.6h3.1v3.7h-3.1v8.4h4.6v4h-9v-27.7h9Z"/>
  </g>
</svg>
