<svg xmlns="http://www.w3.org/2000/svg" viewBox="-3126.558 11.583 147.249 69.858">
  <defs>
    <style>
      .cls-1 {
        fill: #ff521a;
      }

      .cls-2 {
        fill: #fff;
      }
    </style>
  </defs>
  <g id="group" transform="translate(-3563.509 -584.317)">
    <path id="path" class="cls-1" d="M513.2,628a3.656,3.656,0,0,0-2.5-.9c-1.1,0-1.9.4-1.9,1.2,0,1,.9,1.2,2.3,1.3,2.1.2,4.1,1,4.1,3.5,0,2.4-2.2,3.4-4.5,3.5a5.364,5.364,0,0,1-4.7-2.2l1.4-1.5a4.1,4.1,0,0,0,3.3,1.5c1.3,0,2.1-.5,2.1-1.3,0-.9-.7-1.3-2.2-1.4-2.3-.2-4.3-.8-4.3-3.3,0-2.1,2-3.3,4.3-3.3a4.668,4.668,0,0,1,4,1.7Z"/>
    <path id="path-2" data-name="path" class="cls-1" d="M522.4,630.9h2.7a1.6,1.6,0,0,0,1.7-1.6,1.55,1.55,0,0,0-1.7-1.6h-2.7Zm0,2.2v3H520V625.4h5.1a3.78,3.78,0,0,1,4.1,3.9c0,2.1-1.4,3.8-4.1,3.9h-2.7Z"/>
    <path id="path-3" data-name="path" class="cls-1" d="M538.9,627.3a3.418,3.418,0,0,0-3.5,3.5,3.5,3.5,0,1,0,3.5-3.5m0,9.1c-3.4,0-5.8-2.1-5.8-5.6s2.4-5.6,5.8-5.6,5.8,2.1,5.8,5.6-2.3,5.6-5.8,5.6"/>
    <path id="path-4" data-name="path" class="cls-1" d="M552,627.5v3.1h2.7a1.5,1.5,0,0,0,1.6-1.5,1.571,1.571,0,0,0-1.6-1.6Zm7.1,8.6h-2.7l-2.7-3.5H552v3.5h-2.4V625.4h5.1c2.6,0,4,1.7,4,3.6,0,1.4-.4,2.6-2.5,3.4l2.9,3.6Z"/>
    <path id="path-5" data-name="path" class="cls-1" d="M566,627.5h-3.3v-2.1h8.9v2.1h-3.2v8.6H566Z"/>
    <path id="path-6" data-name="path" class="cls-1" d="M582.2,628a3.656,3.656,0,0,0-2.5-.9c-1.1,0-1.9.4-1.9,1.2,0,1,.9,1.2,2.3,1.3,2.1.2,4.1,1,4.1,3.5,0,2.4-2.2,3.4-4.5,3.5a5.364,5.364,0,0,1-4.7-2.2l1.4-1.5a4.1,4.1,0,0,0,3.3,1.5c1.3,0,2.1-.5,2.1-1.3,0-.9-.7-1.3-2.2-1.4-2.3-.2-4.3-.8-4.3-3.3,0-2.1,2-3.3,4.3-3.3a4.668,4.668,0,0,1,4,1.7Z"/>
    <rect id="rectangle" class="cls-1" width="60.3" height="60.3" transform="translate(436.951 606.374) rotate(-10.003)"/>
    <path id="path-7" data-name="path" class="cls-2" d="M491.4,613.9h3l-1.4,4.9h-1.6Z"/>
    <path id="path-8" data-name="path" class="cls-2" d="M447.6,619.9h3l-1.4,4.8h-1.6Z"/>
    <path id="path-9" data-name="path" class="cls-2" d="M453.8,641.9,452,637c-.2-.7-1-2.5-1.1-3.2h0c.1.7.1,2.7.1,3.4v4.6h-3.4v-7.3l5.3-14.5a.31.31,0,0,0,.1-.2h3.5l-3.6,9.4,4.5,12.6h-3.6Z"/>
    <path id="path-10" data-name="path" class="cls-2" d="M468.2,641.9h-2.9l-1-9.1c-.1-.8-.4-2.9-.4-3.6h0c0,.7-.3,2.7-.4,3.6l-1.1,9.1h-2.8l-2.6-22h3.3l.6,6.8c.1,1.2.4,4.3.4,5.2h0a50.535,50.535,0,0,1,.5-5.2l.9-6.8h2.7l.9,6.8c.2,1.1.5,4.4.5,5.2h.1c0-.9.3-4.1.4-5.2l.6-6.8H471Z"/>
    <path id="path-11" data-name="path" class="cls-2" d="M478.9,623h-3.8v6h2.5v3h-2.5v6.7h3.8v3.2h-7.2v-22h7.2Z"/>
    <path id="path-12" data-name="path" class="cls-2" d="M483.8,642.2c-2.6,0-4.3-1.7-4.3-4.6v-2.3h3v2.4c0,.9.4,1.5,1.1,1.5s1.1-.5,1.1-1.5c0-2-.9-3.6-2.3-5.9l-.2-.3c-1.3-2.1-2.6-4.5-2.6-7.1,0-2.7,1.5-4.9,4.4-4.9,2.3,0,3.9,1.7,3.9,4.6v2.4H485v-2.6c0-.8-.4-1.3-1-1.3s-1,.4-1,1.3c0,2.2.8,3.4,2.2,5.7l.2.3c1.5,2.5,2.7,5,2.7,7.4-.1,3.5-2.1,4.9-4.3,4.9"/>
    <path id="path-13" data-name="path" class="cls-2" d="M496.2,623h-3.8v6h2.5v3h-2.5v6.7h3.8v3.2H489v-22h7.2Z"/>
  </g>
</svg>
